<svg xmlns="http://www.w3.org/2000/svg" viewBox="0 0 100 100">
  <defs>
    <linearGradient id="g" x1="0%" y1="0%" x2="100%" y2="100%">
      <stop offset="0%" stop-color="#8460E5"/>
      <stop offset="100%" stop-color="#6B3FA0"/>
    </linearGradient>
  </defs>
  <rect width="100" height="100" rx="20" fill="url(#g)"/>
  <path d="M50 25c-8 0-14 6-14 14 0 5 2 9 5 12l-4 4h26l-4-4c3-3 5-7 5-12 0-8-6-14-14-14z" fill="white"/>
  <path d="M35 55h30v2c0 4-3 7-7 7H42c-4 0-7-3-7-7v-2z" fill="white" opacity="0.9"/>
  <circle cx="44" cy="36" r="3" fill="#6B3FA0"/>
  <circle cx="56" cy="36" r="3" fill="#6B3FA0"/>
  <path d="M50 50v10" stroke="#6B3FA0" stroke-width="2" fill="none"/>
  <path d="M40 52l4 4 4-4" stroke="#6B3FA0" stroke-width="2" fill="none" stroke-linecap="round"/>
</svg>
